<svg viewBox="0 0 22 22" fill="none" xmlns="http://www.w3.org/2000/svg">
<path d="M4 14C3.06812 14 2.60218 14 2.23463 13.8478C1.74458 13.6448 1.35523 13.2554 1.15224 12.7654C1 12.3978 1 11.9319 1 11V4.2C1 3.0799 1 2.51984 1.21799 2.09202C1.40973 1.71569 1.71569 1.40973 2.09202 1.21799C2.51984 1 3.0799 1 4.2 1H11C11.9319 1 12.3978 1 12.7654 1.15224C13.2554 1.35523 13.6448 1.74458 13.8478 2.23463C14 2.60218 14 3.06812 14 4M11.2 21H17.8C18.9201 21 19.4802 21 19.908 20.782C20.2843 20.5903 20.5903 20.2843 20.782 19.908C21 19.4802 21 18.9201 21 17.8V11.2C21 10.0799 21 9.51984 20.782 9.09202C20.5903 8.71569 20.2843 8.40973 19.908 8.21799C19.4802 8 18.9201 8 17.8 8H11.2C10.0799 8 9.51984 8 9.09202 8.21799C8.71569 8.40973 8.40973 8.71569 8.21799 9.09202C8 9.51984 8 10.0799 8 11.2V17.8C8 18.9201 8 19.4802 8.21799 19.908C8.40973 20.2843 8.71569 20.5903 9.09202 20.782C9.51984 21 10.0799 21 11.2 21Z"  stroke-width="2" stroke-linecap="round" stroke-linejoin="round"/>
</svg>
